<svg width="720" height="720" viewBox="0 0 720 720" fill="none" xmlns="http://www.w3.org/2000/svg">
<rect width="720" height="720" rx="110" fill="white"/>
<path d="M181.264 360.455C181.264 370.606 179.34 379.242 175.491 386.364C171.673 393.485 166.461 398.924 159.855 402.682C153.279 406.409 145.885 408.273 137.673 408.273C129.4 408.273 121.976 406.394 115.4 402.636C108.824 398.879 103.628 393.439 99.8093 386.318C95.9911 379.197 94.082 370.576 94.082 360.455C94.082 350.303 95.9911 341.667 99.8093 334.545C103.628 327.424 108.824 322 115.4 318.273C121.976 314.515 129.4 312.636 137.673 312.636C145.885 312.636 153.279 314.515 159.855 318.273C166.461 322 171.673 327.424 175.491 334.545C179.34 341.667 181.264 350.303 181.264 360.455ZM161.309 360.455C161.309 353.879 160.324 348.333 158.355 343.818C156.415 339.303 153.673 335.879 150.128 333.545C146.582 331.212 142.431 330.045 137.673 330.045C132.915 330.045 128.764 331.212 125.218 333.545C121.673 335.879 118.915 339.303 116.946 343.818C115.006 348.333 114.037 353.879 114.037 360.455C114.037 367.03 115.006 372.576 116.946 377.091C118.915 381.606 121.673 385.03 125.218 387.364C128.764 389.697 132.915 390.864 137.673 390.864C142.431 390.864 146.582 389.697 150.128 387.364C153.673 385.03 156.415 381.606 158.355 377.091C160.324 372.576 161.309 367.03 161.309 360.455ZM249.731 357.091L232.003 358.182C231.7 356.667 231.049 355.303 230.049 354.091C229.049 352.848 227.731 351.864 226.094 351.136C224.488 350.379 222.564 350 220.322 350C217.322 350 214.791 350.636 212.731 351.909C210.67 353.152 209.64 354.818 209.64 356.909C209.64 358.576 210.306 359.985 211.64 361.136C212.973 362.288 215.261 363.212 218.503 363.909L231.14 366.455C237.928 367.848 242.988 370.091 246.322 373.182C249.655 376.273 251.322 380.333 251.322 385.364C251.322 389.939 249.973 393.955 247.276 397.409C244.609 400.864 240.943 403.561 236.276 405.5C231.64 407.409 226.291 408.364 220.231 408.364C210.988 408.364 203.625 406.439 198.14 402.591C192.685 398.712 189.488 393.439 188.549 386.773L207.594 385.773C208.17 388.591 209.564 390.742 211.776 392.227C213.988 393.682 216.822 394.409 220.276 394.409C223.67 394.409 226.397 393.758 228.458 392.455C230.549 391.121 231.609 389.409 231.64 387.318C231.609 385.561 230.867 384.121 229.413 383C227.958 381.848 225.716 380.97 222.685 380.364L210.594 377.955C203.776 376.591 198.7 374.227 195.367 370.864C192.064 367.5 190.413 363.212 190.413 358C190.413 353.515 191.625 349.652 194.049 346.409C196.503 343.167 199.943 340.667 204.367 338.909C208.822 337.152 214.034 336.273 220.003 336.273C228.822 336.273 235.761 338.136 240.822 341.864C245.913 345.591 248.882 350.667 249.731 357.091ZM279.038 366.636V407H259.675V313.909H278.493V349.5H279.311C280.887 345.379 283.432 342.152 286.948 339.818C290.463 337.455 294.872 336.273 300.175 336.273C305.023 336.273 309.251 337.333 312.857 339.455C316.493 341.545 319.311 344.561 321.311 348.5C323.341 352.409 324.341 357.091 324.311 362.545V407H304.948V366C304.978 361.697 303.887 358.348 301.675 355.955C299.493 353.561 296.432 352.364 292.493 352.364C289.857 352.364 287.523 352.924 285.493 354.045C283.493 355.167 281.917 356.803 280.766 358.955C279.644 361.076 279.069 363.636 279.038 366.636ZM335.71 407V337.182H355.073V407H335.71ZM345.437 328.182C342.558 328.182 340.089 327.227 338.028 325.318C335.998 323.379 334.982 321.061 334.982 318.364C334.982 315.697 335.998 313.409 338.028 311.5C340.089 309.561 342.558 308.591 345.437 308.591C348.316 308.591 350.77 309.561 352.801 311.5C354.861 313.409 355.892 315.697 355.892 318.364C355.892 321.061 354.861 323.379 352.801 325.318C350.77 327.227 348.316 328.182 345.437 328.182ZM366.745 407V337.182H385.518V349.364H386.245C387.518 345.03 389.654 341.758 392.654 339.545C395.654 337.303 399.108 336.182 403.018 336.182C403.987 336.182 405.033 336.242 406.154 336.364C407.275 336.485 408.26 336.652 409.108 336.864V354.045C408.199 353.773 406.942 353.53 405.336 353.318C403.73 353.106 402.26 353 400.927 353C398.078 353 395.533 353.621 393.29 354.864C391.078 356.076 389.321 357.773 388.018 359.955C386.745 362.136 386.108 364.652 386.108 367.5V407H366.745Z" fill="#00B0B9"/>
<path d="M415.28 407V337.182H433.734V349.5H434.552C436.007 345.409 438.431 342.182 441.825 339.818C445.219 337.455 449.28 336.273 454.007 336.273C458.795 336.273 462.871 337.47 466.234 339.864C469.598 342.227 471.84 345.439 472.962 349.5H473.689C475.113 345.5 477.689 342.303 481.416 339.909C485.174 337.485 489.613 336.273 494.734 336.273C501.249 336.273 506.537 338.348 510.598 342.5C514.689 346.621 516.734 352.47 516.734 360.045V407H497.416V363.864C497.416 359.985 496.386 357.076 494.325 355.136C492.265 353.197 489.689 352.227 486.598 352.227C483.083 352.227 480.34 353.348 478.371 355.591C476.401 357.803 475.416 360.727 475.416 364.364V407H456.643V363.455C456.643 360.03 455.659 357.303 453.689 355.273C451.749 353.242 449.189 352.227 446.007 352.227C443.856 352.227 441.916 352.773 440.189 353.864C438.492 354.924 437.143 356.424 436.143 358.364C435.143 360.273 434.643 362.515 434.643 365.091V407H415.28ZM548.099 408.318C543.644 408.318 539.675 407.545 536.19 406C532.705 404.424 529.947 402.106 527.917 399.045C525.917 395.955 524.917 392.106 524.917 387.5C524.917 383.621 525.629 380.364 527.053 377.727C528.478 375.091 530.417 372.97 532.872 371.364C535.326 369.758 538.114 368.545 541.235 367.727C544.387 366.909 547.69 366.333 551.144 366C555.205 365.576 558.478 365.182 560.963 364.818C563.447 364.424 565.25 363.848 566.372 363.091C567.493 362.333 568.053 361.212 568.053 359.727V359.455C568.053 356.576 567.144 354.348 565.326 352.773C563.538 351.197 560.993 350.409 557.69 350.409C554.205 350.409 551.432 351.182 549.372 352.727C547.311 354.242 545.947 356.152 545.281 358.455L527.372 357C528.281 352.758 530.069 349.091 532.735 346C535.402 342.879 538.841 340.485 543.053 338.818C547.296 337.121 552.205 336.273 557.781 336.273C561.659 336.273 565.372 336.727 568.917 337.636C572.493 338.545 575.659 339.955 578.417 341.864C581.205 343.773 583.402 346.227 585.008 349.227C586.614 352.197 587.417 355.758 587.417 359.909V407H569.053V397.318H568.508C567.387 399.5 565.887 401.424 564.008 403.091C562.129 404.727 559.872 406.015 557.235 406.955C554.599 407.864 551.553 408.318 548.099 408.318ZM553.644 394.955C556.493 394.955 559.008 394.394 561.19 393.273C563.372 392.121 565.084 390.576 566.326 388.636C567.569 386.697 568.19 384.5 568.19 382.045V374.636C567.584 375.03 566.75 375.394 565.69 375.727C564.659 376.03 563.493 376.318 562.19 376.591C560.887 376.833 559.584 377.061 558.281 377.273C556.978 377.455 555.796 377.621 554.735 377.773C552.463 378.106 550.478 378.636 548.781 379.364C547.084 380.091 545.766 381.076 544.826 382.318C543.887 383.53 543.417 385.045 543.417 386.864C543.417 389.5 544.372 391.515 546.281 392.909C548.22 394.273 550.675 394.955 553.644 394.955ZM621.736 313.909L619.963 379.091H603.327L601.509 313.909H621.736ZM611.645 408.182C608.645 408.182 606.069 407.121 603.918 405C601.766 402.848 600.706 400.273 600.736 397.273C600.706 394.303 601.766 391.758 603.918 389.636C606.069 387.515 608.645 386.455 611.645 386.455C614.524 386.455 617.054 387.515 619.236 389.636C621.418 391.758 622.524 394.303 622.554 397.273C622.524 399.273 621.994 401.106 620.963 402.773C619.963 404.409 618.645 405.727 617.009 406.727C615.372 407.697 613.585 408.182 611.645 408.182Z" fill="#FFA462"/>
</svg>
